%TF.GenerationSoftware,KiCad,Pcbnew,9.0.4*%
%TF.CreationDate,2025-09-13T17:27:06+09:00*%
%TF.ProjectId,Slab40_SwitchPlate,536c6162-3430-45f5-9377-69746368506c,v1.0*%
%TF.SameCoordinates,Original*%
%TF.FileFunction,Soldermask,Top*%
%TF.FilePolarity,Negative*%
%FSLAX46Y46*%
G04 Gerber Fmt 4.6, Leading zero omitted, Abs format (unit mm)*
G04 Created by KiCad (PCBNEW 9.0.4) date 2025-09-13 17:27:06*
%MOMM*%
%LPD*%
G01*
G04 APERTURE LIST*
%ADD10C,1.100000*%
G04 APERTURE END LIST*
D10*
%TO.C,SW20*%
X126062500Y-54125000D02*
X126062500Y-41125000D01*
X125562500Y-40625000D02*
X112562500Y-40625000D01*
X112562500Y-54625000D02*
X125562500Y-54625000D01*
X112062500Y-41125000D02*
X112062500Y-54125000D01*
X126062500Y-54125000D02*
G75*
G02*
X125562500Y-54625000I-500001J1D01*
G01*
X125562500Y-40625000D02*
G75*
G02*
X126062500Y-41125000I-1J-500001D01*
G01*
X112565264Y-54623884D02*
G75*
G02*
X112065216Y-54123884I36J500084D01*
G01*
X112062500Y-41125000D02*
G75*
G02*
X112562500Y-40625000I500000J0D01*
G01*
%TO.C,SW5*%
X40337500Y-16025000D02*
X40337500Y-3025000D01*
X39837500Y-2525000D02*
X26837500Y-2525000D01*
X26837500Y-16525000D02*
X39837500Y-16525000D01*
X26337500Y-3025000D02*
X26337500Y-16025000D01*
X40337500Y-16025000D02*
G75*
G02*
X39837500Y-16525000I-500001J1D01*
G01*
X39837500Y-2525000D02*
G75*
G02*
X40337500Y-3025000I-1J-500001D01*
G01*
X26840264Y-16523884D02*
G75*
G02*
X26340216Y-16023884I36J500084D01*
G01*
X26337500Y-3025000D02*
G75*
G02*
X26837500Y-2525000I500000J0D01*
G01*
%TO.C,SW41*%
X240362500Y-73175000D02*
X240362500Y-60175000D01*
X239862500Y-59675000D02*
X226862500Y-59675000D01*
X226862500Y-73675000D02*
X239862500Y-73675000D01*
X226362500Y-60175000D02*
X226362500Y-73175000D01*
X240362500Y-73175000D02*
G75*
G02*
X239862500Y-73675000I-500001J1D01*
G01*
X239862500Y-59675000D02*
G75*
G02*
X240362500Y-60175000I-1J-500001D01*
G01*
X226865264Y-73673884D02*
G75*
G02*
X226365216Y-73173884I36J500084D01*
G01*
X226362500Y-60175000D02*
G75*
G02*
X226862500Y-59675000I500000J0D01*
G01*
%TO.C,SW8*%
X59387500Y-16025000D02*
X59387500Y-3025000D01*
X58887500Y-2525000D02*
X45887500Y-2525000D01*
X45887500Y-16525000D02*
X58887500Y-16525000D01*
X45387500Y-3025000D02*
X45387500Y-16025000D01*
X59387500Y-16025000D02*
G75*
G02*
X58887500Y-16525000I-500001J1D01*
G01*
X58887500Y-2525000D02*
G75*
G02*
X59387500Y-3025000I-1J-500001D01*
G01*
X45890264Y-16523884D02*
G75*
G02*
X45390216Y-16023884I36J500084D01*
G01*
X45387500Y-3025000D02*
G75*
G02*
X45887500Y-2525000I500000J0D01*
G01*
%TO.C,SW33*%
X197500000Y-35075000D02*
X197500000Y-22075000D01*
X197000000Y-21575000D02*
X184000000Y-21575000D01*
X184000000Y-35575000D02*
X197000000Y-35575000D01*
X183500000Y-22075000D02*
X183500000Y-35075000D01*
X197500000Y-35075000D02*
G75*
G02*
X197000000Y-35575000I-500001J1D01*
G01*
X197000000Y-21575000D02*
G75*
G02*
X197500000Y-22075000I-1J-500001D01*
G01*
X184002764Y-35573884D02*
G75*
G02*
X183502716Y-35073884I36J500084D01*
G01*
X183500000Y-22075000D02*
G75*
G02*
X184000000Y-21575000I500000J0D01*
G01*
%TO.C,SW34*%
X202262500Y-54125000D02*
X202262500Y-41125000D01*
X201762500Y-40625000D02*
X188762500Y-40625000D01*
X188762500Y-54625000D02*
X201762500Y-54625000D01*
X188262500Y-41125000D02*
X188262500Y-54125000D01*
X202262500Y-54125000D02*
G75*
G02*
X201762500Y-54625000I-500001J1D01*
G01*
X201762500Y-40625000D02*
G75*
G02*
X202262500Y-41125000I-1J-500001D01*
G01*
X188765264Y-54623884D02*
G75*
G02*
X188265216Y-54123884I36J500084D01*
G01*
X188262500Y-41125000D02*
G75*
G02*
X188762500Y-40625000I500000J0D01*
G01*
%TO.C,SW33*%
X216550000Y-35075000D02*
X216550000Y-22075000D01*
X216050000Y-21575000D02*
X203050000Y-21575000D01*
X203050000Y-35575000D02*
X216050000Y-35575000D01*
X202550000Y-22075000D02*
X202550000Y-35075000D01*
X216550000Y-35075000D02*
G75*
G02*
X216050000Y-35575000I-500001J1D01*
G01*
X216050000Y-21575000D02*
G75*
G02*
X216550000Y-22075000I-1J-500001D01*
G01*
X203052764Y-35573884D02*
G75*
G02*
X202552716Y-35073884I36J500084D01*
G01*
X202550000Y-22075000D02*
G75*
G02*
X203050000Y-21575000I500000J0D01*
G01*
%TO.C,SW30*%
X183212500Y-54125000D02*
X183212500Y-41125000D01*
X182712500Y-40625000D02*
X169712500Y-40625000D01*
X169712500Y-54625000D02*
X182712500Y-54625000D01*
X169212500Y-41125000D02*
X169212500Y-54125000D01*
X183212500Y-54125000D02*
G75*
G02*
X182712500Y-54625000I-500001J1D01*
G01*
X182712500Y-40625000D02*
G75*
G02*
X183212500Y-41125000I-1J-500001D01*
G01*
X169715264Y-54623884D02*
G75*
G02*
X169215216Y-54123884I36J500084D01*
G01*
X169212500Y-41125000D02*
G75*
G02*
X169712500Y-40625000I500000J0D01*
G01*
%TO.C,SW37*%
X221312500Y-54125000D02*
X221312500Y-41125000D01*
X220812500Y-40625000D02*
X207812500Y-40625000D01*
X207812500Y-54625000D02*
X220812500Y-54625000D01*
X207312500Y-41125000D02*
X207312500Y-54125000D01*
X221312500Y-54125000D02*
G75*
G02*
X220812500Y-54625000I-500001J1D01*
G01*
X220812500Y-40625000D02*
G75*
G02*
X221312500Y-41125000I-1J-500001D01*
G01*
X207815264Y-54623884D02*
G75*
G02*
X207315216Y-54123884I36J500084D01*
G01*
X207312500Y-41125000D02*
G75*
G02*
X207812500Y-40625000I500000J0D01*
G01*
%TO.C,SW39*%
X240362500Y-35075000D02*
X240362500Y-22075000D01*
X239862500Y-21575000D02*
X226862500Y-21575000D01*
X226862500Y-35575000D02*
X239862500Y-35575000D01*
X226362500Y-22075000D02*
X226362500Y-35075000D01*
X240362500Y-35075000D02*
G75*
G02*
X239862500Y-35575000I-500001J1D01*
G01*
X239862500Y-21575000D02*
G75*
G02*
X240362500Y-22075000I-1J-500001D01*
G01*
X226865264Y-35573884D02*
G75*
G02*
X226365216Y-35073884I36J500084D01*
G01*
X226362500Y-22075000D02*
G75*
G02*
X226862500Y-21575000I500000J0D01*
G01*
%TO.C,SW38*%
X237981250Y-16025000D02*
X237981250Y-3025000D01*
X237481250Y-2525000D02*
X224481250Y-2525000D01*
X224481250Y-16525000D02*
X237481250Y-16525000D01*
X223981250Y-3025000D02*
X223981250Y-16025000D01*
X237981250Y-16025000D02*
G75*
G02*
X237481250Y-16525000I-500001J1D01*
G01*
X237481250Y-2525000D02*
G75*
G02*
X237981250Y-3025000I-1J-500001D01*
G01*
X224484014Y-16523884D02*
G75*
G02*
X223983966Y-16023884I36J500084D01*
G01*
X223981250Y-3025000D02*
G75*
G02*
X224481250Y-2525000I500000J0D01*
G01*
%TO.C,SW9*%
X64150000Y-35075000D02*
X64150000Y-22075000D01*
X63650000Y-21575000D02*
X50650000Y-21575000D01*
X50650000Y-35575000D02*
X63650000Y-35575000D01*
X50150000Y-22075000D02*
X50150000Y-35075000D01*
X64150000Y-35075000D02*
G75*
G02*
X63650000Y-35575000I-500001J1D01*
G01*
X63650000Y-21575000D02*
G75*
G02*
X64150000Y-22075000I-1J-500001D01*
G01*
X50652764Y-35573884D02*
G75*
G02*
X50152716Y-35073884I36J500084D01*
G01*
X50150000Y-22075000D02*
G75*
G02*
X50650000Y-21575000I500000J0D01*
G01*
%TO.C,SW40*%
X242743750Y-54125000D02*
X242743750Y-41125000D01*
X242243750Y-40625000D02*
X229243750Y-40625000D01*
X229243750Y-54625000D02*
X242243750Y-54625000D01*
X228743750Y-41125000D02*
X228743750Y-54125000D01*
X242743750Y-54125000D02*
G75*
G02*
X242243750Y-54625000I-500001J1D01*
G01*
X242243750Y-40625000D02*
G75*
G02*
X242743750Y-41125000I-1J-500001D01*
G01*
X229246514Y-54623884D02*
G75*
G02*
X228746466Y-54123884I36J500084D01*
G01*
X228743750Y-41125000D02*
G75*
G02*
X229243750Y-40625000I500000J0D01*
G01*
%TO.C,SW12*%
X83200000Y-35075000D02*
X83200000Y-22075000D01*
X82700000Y-21575000D02*
X69700000Y-21575000D01*
X69700000Y-35575000D02*
X82700000Y-35575000D01*
X69200000Y-22075000D02*
X69200000Y-35075000D01*
X83200000Y-35075000D02*
G75*
G02*
X82700000Y-35575000I-500001J1D01*
G01*
X82700000Y-21575000D02*
G75*
G02*
X83200000Y-22075000I-1J-500001D01*
G01*
X69702764Y-35573884D02*
G75*
G02*
X69202716Y-35073884I36J500084D01*
G01*
X69200000Y-22075000D02*
G75*
G02*
X69700000Y-21575000I500000J0D01*
G01*
%TO.C,SW23*%
X140350000Y-35075000D02*
X140350000Y-22075000D01*
X139850000Y-21575000D02*
X126850000Y-21575000D01*
X126850000Y-35575000D02*
X139850000Y-35575000D01*
X126350000Y-22075000D02*
X126350000Y-35075000D01*
X140350000Y-35075000D02*
G75*
G02*
X139850000Y-35575000I-500001J1D01*
G01*
X139850000Y-21575000D02*
G75*
G02*
X140350000Y-22075000I-1J-500001D01*
G01*
X126852764Y-35573884D02*
G75*
G02*
X126352716Y-35073884I36J500084D01*
G01*
X126350000Y-22075000D02*
G75*
G02*
X126850000Y-21575000I500000J0D01*
G01*
%TO.C,SW16*%
X102250000Y-35075000D02*
X102250000Y-22075000D01*
X101750000Y-21575000D02*
X88750000Y-21575000D01*
X88750000Y-35575000D02*
X101750000Y-35575000D01*
X88250000Y-22075000D02*
X88250000Y-35075000D01*
X102250000Y-35075000D02*
G75*
G02*
X101750000Y-35575000I-500001J1D01*
G01*
X101750000Y-21575000D02*
G75*
G02*
X102250000Y-22075000I-1J-500001D01*
G01*
X88752764Y-35573884D02*
G75*
G02*
X88252716Y-35073884I36J500084D01*
G01*
X88250000Y-22075000D02*
G75*
G02*
X88750000Y-21575000I500000J0D01*
G01*
%TO.C,SW28*%
X173687500Y-16025000D02*
X173687500Y-3025000D01*
X173187500Y-2525000D02*
X160187500Y-2525000D01*
X160187500Y-16525000D02*
X173187500Y-16525000D01*
X159687500Y-3025000D02*
X159687500Y-16025000D01*
X173687500Y-16025000D02*
G75*
G02*
X173187500Y-16525000I-500001J1D01*
G01*
X173187500Y-2525000D02*
G75*
G02*
X173687500Y-3025000I-1J-500001D01*
G01*
X160190264Y-16523884D02*
G75*
G02*
X159690216Y-16023884I36J500084D01*
G01*
X159687500Y-3025000D02*
G75*
G02*
X160187500Y-2525000I500000J0D01*
G01*
%TO.C,SW27*%
X164162500Y-54125000D02*
X164162500Y-41125000D01*
X163662500Y-40625000D02*
X150662500Y-40625000D01*
X150662500Y-54625000D02*
X163662500Y-54625000D01*
X150162500Y-41125000D02*
X150162500Y-54125000D01*
X164162500Y-54125000D02*
G75*
G02*
X163662500Y-54625000I-500001J1D01*
G01*
X163662500Y-40625000D02*
G75*
G02*
X164162500Y-41125000I-1J-500001D01*
G01*
X150665264Y-54623884D02*
G75*
G02*
X150165216Y-54123884I36J500084D01*
G01*
X150162500Y-41125000D02*
G75*
G02*
X150662500Y-40625000I500000J0D01*
G01*
%TO.C,SW10*%
X68912500Y-54125000D02*
X68912500Y-41125000D01*
X68412500Y-40625000D02*
X55412500Y-40625000D01*
X55412500Y-54625000D02*
X68412500Y-54625000D01*
X54912500Y-41125000D02*
X54912500Y-54125000D01*
X68912500Y-54125000D02*
G75*
G02*
X68412500Y-54625000I-500001J1D01*
G01*
X68412500Y-40625000D02*
G75*
G02*
X68912500Y-41125000I-1J-500001D01*
G01*
X55415264Y-54623884D02*
G75*
G02*
X54915216Y-54123884I36J500084D01*
G01*
X54912500Y-41125000D02*
G75*
G02*
X55412500Y-40625000I500000J0D01*
G01*
%TO.C,SW25*%
X154637500Y-16025000D02*
X154637500Y-3025000D01*
X154137500Y-2525000D02*
X141137500Y-2525000D01*
X141137500Y-16525000D02*
X154137500Y-16525000D01*
X140637500Y-3025000D02*
X140637500Y-16025000D01*
X154637500Y-16025000D02*
G75*
G02*
X154137500Y-16525000I-500001J1D01*
G01*
X154137500Y-2525000D02*
G75*
G02*
X154637500Y-3025000I-1J-500001D01*
G01*
X141140264Y-16523884D02*
G75*
G02*
X140640216Y-16023884I36J500084D01*
G01*
X140637500Y-3025000D02*
G75*
G02*
X141137500Y-2525000I500000J0D01*
G01*
%TO.C,SW17*%
X107012500Y-54125000D02*
X107012500Y-41125000D01*
X106512500Y-40625000D02*
X93512500Y-40625000D01*
X93512500Y-54625000D02*
X106512500Y-54625000D01*
X93012500Y-41125000D02*
X93012500Y-54125000D01*
X107012500Y-54125000D02*
G75*
G02*
X106512500Y-54625000I-500001J1D01*
G01*
X106512500Y-40625000D02*
G75*
G02*
X107012500Y-41125000I-1J-500001D01*
G01*
X93515264Y-54623884D02*
G75*
G02*
X93015216Y-54123884I36J500084D01*
G01*
X93012500Y-41125000D02*
G75*
G02*
X93512500Y-40625000I500000J0D01*
G01*
%TO.C,SW1*%
X18906250Y-16025000D02*
X18906250Y-3025000D01*
X18406250Y-2525000D02*
X5406250Y-2525000D01*
X5406250Y-16525000D02*
X18406250Y-16525000D01*
X4906250Y-3025000D02*
X4906250Y-16025000D01*
X18906250Y-16025000D02*
G75*
G02*
X18406250Y-16525000I-500001J1D01*
G01*
X18406250Y-2525000D02*
G75*
G02*
X18906250Y-3025000I-1J-500001D01*
G01*
X5409014Y-16523884D02*
G75*
G02*
X4908966Y-16023884I36J500084D01*
G01*
X4906250Y-3025000D02*
G75*
G02*
X5406250Y-2525000I500000J0D01*
G01*
%TO.C,SW13*%
X87962500Y-54125000D02*
X87962500Y-41125000D01*
X87462500Y-40625000D02*
X74462500Y-40625000D01*
X74462500Y-54625000D02*
X87462500Y-54625000D01*
X73962500Y-41125000D02*
X73962500Y-54125000D01*
X87962500Y-54125000D02*
G75*
G02*
X87462500Y-54625000I-500001J1D01*
G01*
X87462500Y-40625000D02*
G75*
G02*
X87962500Y-41125000I-1J-500001D01*
G01*
X74465264Y-54623884D02*
G75*
G02*
X73965216Y-54123884I36J500084D01*
G01*
X73962500Y-41125000D02*
G75*
G02*
X74462500Y-40625000I500000J0D01*
G01*
%TO.C,SW15*%
X97487500Y-16025000D02*
X97487500Y-3025000D01*
X96987500Y-2525000D02*
X83987500Y-2525000D01*
X83987500Y-16525000D02*
X96987500Y-16525000D01*
X83487500Y-3025000D02*
X83487500Y-16025000D01*
X97487500Y-16025000D02*
G75*
G02*
X96987500Y-16525000I-500001J1D01*
G01*
X96987500Y-2525000D02*
G75*
G02*
X97487500Y-3025000I-1J-500001D01*
G01*
X83990264Y-16523884D02*
G75*
G02*
X83490216Y-16023884I36J500084D01*
G01*
X83487500Y-3025000D02*
G75*
G02*
X83987500Y-2525000I500000J0D01*
G01*
%TO.C,SW35*%
X211787500Y-16025000D02*
X211787500Y-3025000D01*
X211287500Y-2525000D02*
X198287500Y-2525000D01*
X198287500Y-16525000D02*
X211287500Y-16525000D01*
X197787500Y-3025000D02*
X197787500Y-16025000D01*
X211787500Y-16025000D02*
G75*
G02*
X211287500Y-16525000I-500001J1D01*
G01*
X211287500Y-2525000D02*
G75*
G02*
X211787500Y-3025000I-1J-500001D01*
G01*
X198290264Y-16523884D02*
G75*
G02*
X197790216Y-16023884I36J500084D01*
G01*
X197787500Y-3025000D02*
G75*
G02*
X198287500Y-2525000I500000J0D01*
G01*
%TO.C,SW32*%
X192737500Y-16025000D02*
X192737500Y-3025000D01*
X192237500Y-2525000D02*
X179237500Y-2525000D01*
X179237500Y-16525000D02*
X192237500Y-16525000D01*
X178737500Y-3025000D02*
X178737500Y-16025000D01*
X192737500Y-16025000D02*
G75*
G02*
X192237500Y-16525000I-500001J1D01*
G01*
X192237500Y-2525000D02*
G75*
G02*
X192737500Y-3025000I-1J-500001D01*
G01*
X179240264Y-16523884D02*
G75*
G02*
X178740216Y-16023884I36J500084D01*
G01*
X178737500Y-3025000D02*
G75*
G02*
X179237500Y-2525000I500000J0D01*
G01*
%TO.C,SW22*%
X135587500Y-16025000D02*
X135587500Y-3025000D01*
X135087500Y-2525000D02*
X122087500Y-2525000D01*
X122087500Y-16525000D02*
X135087500Y-16525000D01*
X121587500Y-3025000D02*
X121587500Y-16025000D01*
X135587500Y-16025000D02*
G75*
G02*
X135087500Y-16525000I-500001J1D01*
G01*
X135087500Y-2525000D02*
G75*
G02*
X135587500Y-3025000I-1J-500001D01*
G01*
X122090264Y-16523884D02*
G75*
G02*
X121590216Y-16023884I36J500084D01*
G01*
X121587500Y-3025000D02*
G75*
G02*
X122087500Y-2525000I500000J0D01*
G01*
%TO.C,SW11*%
X78437500Y-16025000D02*
X78437500Y-3025000D01*
X77937500Y-2525000D02*
X64937500Y-2525000D01*
X64937500Y-16525000D02*
X77937500Y-16525000D01*
X64437500Y-3025000D02*
X64437500Y-16025000D01*
X78437500Y-16025000D02*
G75*
G02*
X77937500Y-16525000I-500001J1D01*
G01*
X77937500Y-2525000D02*
G75*
G02*
X78437500Y-3025000I-1J-500001D01*
G01*
X64940264Y-16523884D02*
G75*
G02*
X64440216Y-16023884I36J500084D01*
G01*
X64437500Y-3025000D02*
G75*
G02*
X64937500Y-2525000I500000J0D01*
G01*
%TO.C,SW19*%
X121300000Y-35075000D02*
X121300000Y-22075000D01*
X120800000Y-21575000D02*
X107800000Y-21575000D01*
X107800000Y-35575000D02*
X120800000Y-35575000D01*
X107300000Y-22075000D02*
X107300000Y-35075000D01*
X121300000Y-35075000D02*
G75*
G02*
X120800000Y-35575000I-500001J1D01*
G01*
X120800000Y-21575000D02*
G75*
G02*
X121300000Y-22075000I-1J-500001D01*
G01*
X107802764Y-35573884D02*
G75*
G02*
X107302716Y-35073884I36J500084D01*
G01*
X107300000Y-22075000D02*
G75*
G02*
X107800000Y-21575000I500000J0D01*
G01*
%TO.C,SW29*%
X178450000Y-35075000D02*
X178450000Y-22075000D01*
X177950000Y-21575000D02*
X164950000Y-21575000D01*
X164950000Y-35575000D02*
X177950000Y-35575000D01*
X164450000Y-22075000D02*
X164450000Y-35075000D01*
X178450000Y-35075000D02*
G75*
G02*
X177950000Y-35575000I-500001J1D01*
G01*
X177950000Y-21575000D02*
G75*
G02*
X178450000Y-22075000I-1J-500001D01*
G01*
X164952764Y-35573884D02*
G75*
G02*
X164452716Y-35073884I36J500084D01*
G01*
X164450000Y-22075000D02*
G75*
G02*
X164950000Y-21575000I500000J0D01*
G01*
%TO.C,SW2*%
X21287500Y-35075000D02*
X21287500Y-22075000D01*
X20787500Y-21575000D02*
X7787500Y-21575000D01*
X7787500Y-35575000D02*
X20787500Y-35575000D01*
X7287500Y-22075000D02*
X7287500Y-35075000D01*
X21287500Y-35075000D02*
G75*
G02*
X20787500Y-35575000I-500001J1D01*
G01*
X20787500Y-21575000D02*
G75*
G02*
X21287500Y-22075000I-1J-500001D01*
G01*
X7790264Y-35573884D02*
G75*
G02*
X7290216Y-35073884I36J500084D01*
G01*
X7287500Y-22075000D02*
G75*
G02*
X7787500Y-21575000I500000J0D01*
G01*
%TO.C,SW7*%
X49862500Y-54125000D02*
X49862500Y-41125000D01*
X49362500Y-40625000D02*
X36362500Y-40625000D01*
X36362500Y-54625000D02*
X49362500Y-54625000D01*
X35862500Y-41125000D02*
X35862500Y-54125000D01*
X49862500Y-54125000D02*
G75*
G02*
X49362500Y-54625000I-500001J1D01*
G01*
X49362500Y-40625000D02*
G75*
G02*
X49862500Y-41125000I-1J-500001D01*
G01*
X36365264Y-54623884D02*
G75*
G02*
X35865216Y-54123884I36J500084D01*
G01*
X35862500Y-41125000D02*
G75*
G02*
X36362500Y-40625000I500000J0D01*
G01*
%TO.C,SW18*%
X116537500Y-16025000D02*
X116537500Y-3025000D01*
X116037500Y-2525000D02*
X103037500Y-2525000D01*
X103037500Y-16525000D02*
X116037500Y-16525000D01*
X102537500Y-3025000D02*
X102537500Y-16025000D01*
X116537500Y-16025000D02*
G75*
G02*
X116037500Y-16525000I-500001J1D01*
G01*
X116037500Y-2525000D02*
G75*
G02*
X116537500Y-3025000I-1J-500001D01*
G01*
X103040264Y-16523884D02*
G75*
G02*
X102540216Y-16023884I36J500084D01*
G01*
X102537500Y-3025000D02*
G75*
G02*
X103037500Y-2525000I500000J0D01*
G01*
%TO.C,SW6*%
X45100000Y-35075000D02*
X45100000Y-22075000D01*
X44600000Y-21575000D02*
X31600000Y-21575000D01*
X31600000Y-35575000D02*
X44600000Y-35575000D01*
X31100000Y-22075000D02*
X31100000Y-35075000D01*
X45100000Y-35075000D02*
G75*
G02*
X44600000Y-35575000I-500001J1D01*
G01*
X44600000Y-21575000D02*
G75*
G02*
X45100000Y-22075000I-1J-500001D01*
G01*
X31602764Y-35573884D02*
G75*
G02*
X31102716Y-35073884I36J500084D01*
G01*
X31100000Y-22075000D02*
G75*
G02*
X31600000Y-21575000I500000J0D01*
G01*
%TO.C,SW26*%
X159400000Y-35075000D02*
X159400000Y-22075000D01*
X158900000Y-21575000D02*
X145900000Y-21575000D01*
X145900000Y-35575000D02*
X158900000Y-35575000D01*
X145400000Y-22075000D02*
X145400000Y-35075000D01*
X159400000Y-35075000D02*
G75*
G02*
X158900000Y-35575000I-500001J1D01*
G01*
X158900000Y-21575000D02*
G75*
G02*
X159400000Y-22075000I-1J-500001D01*
G01*
X145902764Y-35573884D02*
G75*
G02*
X145402716Y-35073884I36J500084D01*
G01*
X145400000Y-22075000D02*
G75*
G02*
X145900000Y-21575000I500000J0D01*
G01*
%TO.C,SW4*%
X21287500Y-73175000D02*
X21287500Y-60175000D01*
X20787500Y-59675000D02*
X7787500Y-59675000D01*
X7787500Y-73675000D02*
X20787500Y-73675000D01*
X7287500Y-60175000D02*
X7287500Y-73175000D01*
X21287500Y-73175000D02*
G75*
G02*
X20787500Y-73675000I-500001J1D01*
G01*
X20787500Y-59675000D02*
G75*
G02*
X21287500Y-60175000I-1J-500001D01*
G01*
X7790264Y-73673884D02*
G75*
G02*
X7290216Y-73173884I36J500084D01*
G01*
X7287500Y-60175000D02*
G75*
G02*
X7787500Y-59675000I500000J0D01*
G01*
%TO.C,SW24*%
X145112500Y-54125000D02*
X145112500Y-41125000D01*
X144612500Y-40625000D02*
X131612500Y-40625000D01*
X131612500Y-54625000D02*
X144612500Y-54625000D01*
X131112500Y-41125000D02*
X131112500Y-54125000D01*
X145112500Y-54125000D02*
G75*
G02*
X144612500Y-54625000I-500001J1D01*
G01*
X144612500Y-40625000D02*
G75*
G02*
X145112500Y-41125000I-1J-500001D01*
G01*
X131615264Y-54623884D02*
G75*
G02*
X131115216Y-54123884I36J500084D01*
G01*
X131112500Y-41125000D02*
G75*
G02*
X131612500Y-40625000I500000J0D01*
G01*
%TO.C,SW3*%
X23668750Y-54125000D02*
X23668750Y-41125000D01*
X23168750Y-40625000D02*
X10168750Y-40625000D01*
X10168750Y-54625000D02*
X23168750Y-54625000D01*
X9668750Y-41125000D02*
X9668750Y-54125000D01*
X23668750Y-54125000D02*
G75*
G02*
X23168750Y-54625000I-500001J1D01*
G01*
X23168750Y-40625000D02*
G75*
G02*
X23668750Y-41125000I-1J-500001D01*
G01*
X10171514Y-54623884D02*
G75*
G02*
X9671466Y-54123884I36J500084D01*
G01*
X9668750Y-41125000D02*
G75*
G02*
X10168750Y-40625000I500000J0D01*
G01*
%TD*%
M02*
