M48
; DRILL file {KiCad 9.0.4} date 2025-08-26T01:24:38+0900
; FORMAT={-:-/ absolute / inch / decimal}
; #@! TF.CreationDate,2025-08-26T01:24:38+09:00
; #@! TF.GenerationSoftware,Kicad,Pcbnew,9.0.4
; #@! TF.FileFunction,Plated,1,2,PTH
FMAT,2
INCH
; #@! TA.AperFunction,Plated,PTH,ViaDrill
T1C0.0157
; #@! TA.AperFunction,Plated,PTH,ComponentDrill
T2C0.0315
%
G90
G05
T1
X0.2657Y-0.8967
X0.2657Y-2.3573
X0.3602Y-1.6171
X1.0492Y-0.4911
X1.2028Y-0.8927
X1.3878Y-1.5974
X1.5637Y-0.6286
X1.9587Y-0.8888
X2.1398Y-1.5935
X2.1831Y-0.503
X2.3137Y-0.6424
X2.561Y-2.0742
X2.7067Y-0.877
X2.7972Y-2.3809
X2.8957Y-1.6053
X2.939Y-0.4715
X3.0728Y-0.6526
X3.128Y-1.3459
X3.4508Y-0.8809
X3.6437Y-1.5935
X3.8406Y-0.6683
X4.2028Y-0.8848
X4.3917Y-1.6093
X4.5807Y-2.3494
X4.6083Y-0.6839
X4.9547Y-0.8809
X5.1437Y-1.6014
X5.3701Y-0.6977
X5.7028Y-0.8809
X5.8917Y-1.6053
X6.1457Y-0.7096
X6.3602Y-2.3691
X6.4508Y-0.877
X6.6398Y-1.5974
X6.9134Y-0.7253
X7.2028Y-0.873
X7.3917Y-1.5974
X7.6791Y-0.7391
X7.9547Y-0.8612
X8.1398Y-1.6132
X8.4409Y-0.753
X8.8917Y-0.8612
X8.8917Y-2.3888
X8.9823Y-1.6014
X9.4193Y-0.7707
T2
X0.0571Y-0.1171
X0.0571Y-0.4171
X0.0634Y0.0341
X0.0634Y-0.5659
X0.1634Y0.0341
X0.1634Y-0.5659
X0.2634Y0.0341
X0.2634Y-0.5659
X0.3634Y0.0341
X0.3634Y-0.5659
X0.4634Y0.0341
X0.4634Y-0.5659
X0.5634Y0.0341
X0.5634Y-0.5659
X0.6634Y0.0341
X0.6634Y-0.5659
X0.7634Y0.0341
X0.7634Y-0.5659
X0.8634Y0.0341
X0.8634Y-0.5659
X0.8717Y-0.0659
X0.8717Y-0.1659
X0.8717Y-0.2659
X0.8717Y-0.3659
X0.8717Y-0.4659
X0.935Y-1.0455
X0.935Y-1.3455
X1.0039Y-2.5222
X1.0039Y-2.8222
X1.0531Y-1.7742
X1.0531Y-2.0742
X1.6476Y-0.288
X1.6476Y-0.588
X1.8366Y-1.0455
X1.8366Y-1.3455
X2.0256Y-1.7742
X2.0256Y-2.0742
X2.3996Y-0.288
X2.3996Y-0.588
X2.5846Y-1.0459
X2.5846Y-1.3459
X2.7736Y-1.7742
X2.7736Y-2.0742
X3.1516Y-0.288
X3.1516Y-0.588
X3.3327Y-1.0459
X3.3327Y-1.3459
X3.5217Y-1.7742
X3.5217Y-2.0742
X3.5827Y-2.5222
X3.5827Y-2.8222
X3.8957Y-0.288
X3.8957Y-0.588
X4.0846Y-1.0459
X4.0846Y-1.3459
X4.2697Y-1.7742
X4.2697Y-2.0742
X4.6476Y-0.286
X4.6476Y-0.586
X4.8327Y-1.0459
X4.8327Y-1.3459
X5.0177Y-1.7742
X5.0177Y-2.0742
X5.3642Y-2.5222
X5.3642Y-2.8222
X5.3996Y-0.288
X5.3996Y-0.588
X5.5807Y-1.0459
X5.5807Y-1.3459
X5.7697Y-1.7742
X5.7697Y-2.0742
X6.1516Y-0.286
X6.1516Y-0.586
X6.3327Y-1.0459
X6.3327Y-1.3459
X6.5177Y-1.7742
X6.5177Y-2.0742
X6.8957Y-0.288
X6.8957Y-0.588
X7.0846Y-1.0459
X7.0846Y-1.3459
X7.1358Y-2.5222
X7.1358Y-2.8222
X7.2697Y-1.7742
X7.2697Y-2.0742
X7.6476Y-0.2856
X7.6476Y-0.5856
X7.8327Y-1.0459
X7.8327Y-1.3459
X8.0177Y-1.7742
X8.0177Y-2.0742
X8.4744Y-0.288
X8.4744Y-0.588
X8.6614Y-1.0459
X8.6614Y-1.3459
X8.8484Y-1.7742
X8.8484Y-2.0742
X9.4882Y-0.288
X9.4882Y-0.588
X9.5768Y-1.0482
X9.5768Y-1.3482
X9.5965Y-2.5222
X9.5965Y-2.8222
X9.6358Y-1.7742
X9.6358Y-2.0742
M30
