M48
; DRILL file {KiCad 9.0.4} date 2025-08-26T01:24:38+0900
; FORMAT={-:-/ absolute / inch / decimal}
; #@! TF.CreationDate,2025-08-26T01:24:38+09:00
; #@! TF.GenerationSoftware,Kicad,Pcbnew,9.0.4
; #@! TF.FileFunction,NonPlated,1,2,NPTH
FMAT,2
INCH
; #@! TA.AperFunction,NonPlated,NPTH,ComponentDrill
T1C0.0748
; #@! TA.AperFunction,NonPlated,NPTH,ComponentDrill
T2C0.1181
; #@! TA.AperFunction,NonPlated,NPTH,ComponentDrill
T3C0.1614
%
G90
G05
T1
X0.2687Y-0.375
X0.3625Y-1.125
X0.3625Y-2.625
X0.4562Y-1.875
X0.6687Y-0.375
X0.7625Y-1.125
X0.7625Y-2.625
X0.8562Y-1.875
X1.1125Y-0.375
X1.3Y-1.125
X1.4875Y-1.875
X1.5125Y-0.375
X1.7Y-1.125
X1.8625Y-0.375
X1.8875Y-1.875
X2.05Y-1.125
X2.2375Y-1.875
X2.2625Y-0.375
X2.45Y-1.125
X2.6125Y-0.375
X2.6375Y-1.875
X2.8Y-1.125
X2.8937Y-2.625
X2.9875Y-1.875
X3.0125Y-0.375
X3.2Y-1.125
X3.2937Y-2.625
X3.3625Y-0.375
X3.3875Y-1.875
X3.55Y-1.125
X3.7375Y-1.875
X3.7625Y-0.375
X3.95Y-1.125
X4.1125Y-0.375
X4.1375Y-1.875
X4.3Y-1.125
X4.4875Y-1.875
X4.5125Y-0.375
X4.675Y-2.625
X4.7Y-1.125
X4.8625Y-0.375
X4.8875Y-1.875
X5.05Y-1.125
X5.075Y-2.625
X5.2375Y-1.875
X5.2625Y-0.375
X5.45Y-1.125
X5.6125Y-0.375
X5.6375Y-1.875
X5.8Y-1.125
X5.9875Y-1.875
X6.0125Y-0.375
X6.2Y-1.125
X6.3625Y-0.375
X6.3875Y-1.875
X6.4562Y-2.625
X6.55Y-1.125
X6.7375Y-1.875
X6.7625Y-0.375
X6.8563Y-2.625
X6.95Y-1.125
X7.1125Y-0.375
X7.1375Y-1.875
X7.3Y-1.125
X7.4875Y-1.875
X7.5125Y-0.375
X7.7Y-1.125
X7.8625Y-0.375
X7.8875Y-1.875
X8.05Y-1.125
X8.2375Y-1.875
X8.2625Y-0.375
X8.45Y-1.125
X8.6375Y-1.875
X8.8937Y-0.375
X8.9875Y-1.125
X8.9875Y-2.625
X9.0812Y-1.875
X9.2937Y-0.375
X9.3875Y-1.125
X9.3875Y-2.625
X9.4812Y-1.875
T2
X0.3187Y-0.275
X0.4125Y-1.025
X0.4125Y-2.525
X0.5062Y-1.775
X0.5687Y-0.175
X0.6625Y-0.925
X0.6625Y-2.425
X0.7562Y-1.675
X1.1625Y-0.275
X1.35Y-1.025
X1.4125Y-0.175
X1.5375Y-1.775
X1.6Y-0.925
X1.7875Y-1.675
X1.9125Y-0.275
X2.1Y-1.025
X2.1625Y-0.175
X2.2875Y-1.775
X2.35Y-0.925
X2.5375Y-1.675
X2.6625Y-0.275
X2.85Y-1.025
X2.9125Y-0.175
X2.9438Y-2.525
X3.0375Y-1.775
X3.1Y-0.925
X3.1938Y-2.425
X3.2875Y-1.675
X3.4125Y-0.275
X3.6Y-1.025
X3.6625Y-0.175
X3.7875Y-1.775
X3.85Y-0.925
X4.0375Y-1.675
X4.1625Y-0.275
X4.35Y-1.025
X4.4125Y-0.175
X4.5375Y-1.775
X4.6Y-0.925
X4.725Y-2.525
X4.7875Y-1.675
X4.9125Y-0.275
X4.975Y-2.425
X5.1Y-1.025
X5.1625Y-0.175
X5.2875Y-1.775
X5.35Y-0.925
X5.5375Y-1.675
X5.6625Y-0.275
X5.85Y-1.025
X5.9125Y-0.175
X6.0375Y-1.775
X6.1Y-0.925
X6.2875Y-1.675
X6.4125Y-0.275
X6.5062Y-2.525
X6.6Y-1.025
X6.6625Y-0.175
X6.7562Y-2.425
X6.7875Y-1.775
X6.85Y-0.925
X7.0375Y-1.675
X7.1625Y-0.275
X7.35Y-1.025
X7.4125Y-0.175
X7.5375Y-1.775
X7.6Y-0.925
X7.7875Y-1.675
X7.9125Y-0.275
X8.1Y-1.025
X8.1625Y-0.175
X8.2875Y-1.775
X8.35Y-0.925
X8.5375Y-1.675
X8.9437Y-0.275
X9.0375Y-1.025
X9.0375Y-2.525
X9.1312Y-1.775
X9.1937Y-0.175
X9.2875Y-0.925
X9.2875Y-2.425
X9.3812Y-1.675
T3
X0.4688Y-0.375
X0.5625Y-1.125
X0.5625Y-2.625
X0.6562Y-1.875
X1.3125Y-0.375
X1.5Y-1.125
X1.6875Y-1.875
X2.0625Y-0.375
X2.25Y-1.125
X2.4375Y-1.875
X2.8125Y-0.375
X3.0Y-1.125
X3.0938Y-2.625
X3.1875Y-1.875
X3.5625Y-0.375
X3.75Y-1.125
X3.9375Y-1.875
X4.3125Y-0.375
X4.5Y-1.125
X4.6875Y-1.875
X4.875Y-2.625
X5.0625Y-0.375
X5.25Y-1.125
X5.4375Y-1.875
X5.8125Y-0.375
X6.0Y-1.125
X6.1875Y-1.875
X6.5625Y-0.375
X6.6562Y-2.625
X6.75Y-1.125
X6.9375Y-1.875
X7.3125Y-0.375
X7.5Y-1.125
X7.6875Y-1.875
X8.0625Y-0.375
X8.25Y-1.125
X8.4375Y-1.875
X9.0938Y-0.375
X9.1875Y-1.125
X9.1875Y-2.625
X9.2812Y-1.875
M30
